<svg width="206" height="69" viewBox="0 0 206 69" fill="none" xmlns="http://www.w3.org/2000/svg">
<g id="Download_on_the_App_Store_Badge_US-UK_RGB_blk_092917 1" clip-path="url(#clip0_95_31)">
<g id="Group">
<g id="Group_2">
<g id="Group_3">
<path id="Vector" d="M14.5377 67.4905C14.0132 67.4905 13.5014 67.4838 12.981 67.4721C11.903 67.458 10.8275 67.364 9.76329 67.1907C8.77101 67.0195 7.80975 66.7009 6.91124 66.2456C6.02095 65.794 5.20895 65.2019 4.50632 64.492C3.79352 63.7904 3.20009 62.9766 2.74953 62.083C2.294 61.1836 1.97875 60.2195 1.81476 59.2243C1.63766 58.155 1.54184 57.0738 1.52813 55.9899C1.51722 55.6261 1.50293 54.4149 1.50293 54.4149V14.5664C1.50293 14.5664 1.51815 13.3737 1.52822 13.0233C1.54135 11.9412 1.63661 10.8616 1.81318 9.79399C1.97747 8.79611 2.29297 7.82924 2.74873 6.92686C3.19764 6.03385 3.78778 5.21951 4.49628 4.5154C5.20399 3.8046 6.0186 3.20944 6.91039 2.75164C7.80685 2.29776 8.76628 1.98147 9.75656 1.81334C10.8242 1.63837 11.9035 1.54377 12.9852 1.53034L14.5386 1.50928H191.453L193.025 1.53118C194.097 1.54395 195.166 1.6377 196.224 1.81165C197.225 1.98188 198.194 2.30039 199.101 2.75669C200.887 3.6793 202.341 5.13896 203.258 6.93107C203.707 7.82722 204.017 8.7862 204.179 9.77546C204.358 10.8519 204.458 11.9399 204.479 13.0309C204.484 13.5194 204.484 14.0442 204.484 14.5664C204.497 15.2133 204.497 15.829 204.497 16.4497V52.5517C204.497 53.1784 204.497 53.7899 204.484 54.4064C204.484 54.9674 204.484 55.4812 204.477 56.0101C204.457 57.0817 204.358 58.1503 204.183 59.2074C204.022 60.2098 203.709 61.1814 203.253 62.0882C202.799 62.9721 202.209 63.7788 201.505 64.4785C200.801 65.1923 199.988 65.7878 199.096 66.2423C198.192 66.7012 197.223 67.0209 196.224 67.1907C195.16 67.3649 194.085 67.4589 193.006 67.4721C192.502 67.4838 191.974 67.4905 191.462 67.4905L189.596 67.494L14.5377 67.4905Z" fill="black"/>
</g>
<g id="&#60;Group&#62;">
<g id="&#60;Group&#62;_2">
<g id="&#60;Group&#62;_3">
<path id="&#60;Path&#62;" d="M42.6394 35.0188C42.6579 33.579 43.0396 32.1673 43.7488 30.915C44.4581 29.6627 45.472 28.6106 46.6962 27.8564C45.9185 26.7435 44.8926 25.8277 43.6999 25.1816C42.5072 24.5355 41.1806 24.1769 39.8254 24.1345C36.9347 23.8304 34.1322 25.8678 32.6591 25.8678C31.1575 25.8678 28.8894 24.1646 26.4471 24.215C24.8673 24.2661 23.3277 24.7265 21.9783 25.5511C20.6288 26.3758 19.5156 27.5366 18.747 28.9206C15.4177 34.6966 17.9011 43.1854 21.0903 47.8543C22.6859 50.1405 24.5508 52.6943 26.9909 52.6037C29.3787 52.5045 30.2705 51.078 33.1528 51.078C36.0083 51.078 36.845 52.6037 39.3347 52.5462C41.8969 52.5045 43.5112 50.2498 45.0509 47.9419C46.1973 46.3129 47.0795 44.5125 47.6648 42.6073C46.1762 41.9764 44.9059 40.9204 44.0122 39.571C43.1186 38.2215 42.6411 36.6383 42.6394 35.0188Z" fill="white"/>
<path id="&#60;Path&#62;_2" d="M37.9366 21.0638C39.3336 19.3833 40.0219 17.2233 39.8552 15.0425C37.7208 15.2671 35.7493 16.2893 34.3334 17.9053C33.6411 18.6948 33.1109 19.6132 32.7731 20.6082C32.4352 21.6031 32.2964 22.655 32.3645 23.7037C33.4321 23.7147 34.4882 23.4829 35.4534 23.0256C36.4185 22.5683 37.2676 21.8975 37.9366 21.0638Z" fill="white"/>
</g>
</g>
<g id="Group_4">
<path id="Vector_2" d="M72.8233 46.8162H64.6748L62.718 52.6061H59.2666L66.9847 31.1851H70.5706L78.2887 52.6061H74.7784L72.8233 46.8162ZM65.5187 44.1445H71.9778L68.7937 34.748H68.7046L65.5187 44.1445Z" fill="white"/>
<path id="Vector_3" d="M94.9568 44.7977C94.9568 49.651 92.3645 52.7691 88.4525 52.7691C87.4615 52.8211 86.476 52.5923 85.6087 52.1091C84.7414 51.6259 84.0275 50.9077 83.5486 50.0367H83.4746V57.7723H80.2754V36.9881H83.3721V39.5857H83.4309C83.9318 38.7189 84.6578 38.0044 85.5317 37.5183C86.4056 37.0321 87.3946 36.7924 88.3937 36.8247C92.3493 36.8247 94.9568 39.958 94.9568 44.7977ZM91.6685 44.7977C91.6685 41.6358 90.0378 39.557 87.5497 39.557C85.1053 39.557 83.4612 41.6796 83.4612 44.7977C83.4612 47.9445 85.1053 50.0519 87.5497 50.0519C90.0378 50.0519 91.6685 47.9883 91.6685 44.7977Z" fill="white"/>
<path id="Vector_4" d="M112.111 44.7977C112.111 49.651 109.519 52.7691 105.607 52.7691C104.616 52.8211 103.63 52.5923 102.763 52.1091C101.896 51.6258 101.182 50.9076 100.703 50.0367H100.629V57.7723H97.4297V36.9881H100.526V39.5857H100.585C101.086 38.7189 101.812 38.0044 102.686 37.5182C103.56 37.0321 104.549 36.7924 105.548 36.8247C109.504 36.8247 112.111 39.9579 112.111 44.7977ZM108.823 44.7977C108.823 41.6358 107.192 39.557 104.704 39.557C102.26 39.557 100.615 41.6796 100.615 44.7977C100.615 47.9445 102.26 50.0519 104.704 50.0519C107.192 50.0519 108.823 47.9883 108.823 44.7977Z" fill="white"/>
<path id="Vector_5" d="M123.449 46.6374C123.686 48.7617 125.745 50.1564 128.559 50.1564C131.256 50.1564 133.196 48.7616 133.196 46.8462C133.196 45.1836 132.026 44.188 129.255 43.5057L126.485 42.8369C122.559 41.8869 120.737 40.0473 120.737 37.0622C120.737 33.3663 123.951 30.8276 128.516 30.8276C133.033 30.8276 136.13 33.3663 136.234 37.0622H133.004C132.811 34.9245 131.047 33.6341 128.47 33.6341C125.893 33.6341 124.13 34.9397 124.13 36.8399C124.13 38.3543 125.256 39.2454 128.011 39.9276L130.367 40.5071C134.753 41.5465 136.575 43.312 136.575 46.4452C136.575 50.4528 133.389 52.9628 128.322 52.9628C123.581 52.9628 120.381 50.5118 120.174 46.6373L123.449 46.6374Z" fill="white"/>
<path id="Vector_6" d="M143.48 33.2925V36.9884H146.443V39.5271H143.48V48.1369C143.48 49.4745 144.073 50.0978 145.376 50.0978C145.728 50.0916 146.079 50.0668 146.428 50.0236V52.5471C145.842 52.6567 145.247 52.7064 144.651 52.6953C141.496 52.6953 140.265 51.5077 140.265 48.4788V39.5271H137.999V36.9884H140.265V33.2925H143.48Z" fill="white"/>
<path id="Vector_7" d="M148.16 44.7981C148.16 39.8842 151.048 36.7964 155.552 36.7964C160.071 36.7964 162.946 39.8841 162.946 44.7981C162.946 49.7255 160.086 52.7998 155.552 52.7998C151.02 52.7998 148.16 49.7255 148.16 44.7981ZM159.686 44.7981C159.686 41.4273 158.144 39.4378 155.552 39.4378C152.96 39.4378 151.42 41.4424 151.42 44.7981C151.42 48.1824 152.96 50.1567 155.552 50.1567C158.144 50.1567 159.686 48.1824 159.686 44.7981Z" fill="white"/>
<path id="Vector_8" d="M165.583 36.9884H168.634V39.6466H168.708C168.915 38.8164 169.4 38.0827 170.083 37.5689C170.766 37.055 171.604 36.7923 172.457 36.825C172.826 36.8237 173.194 36.8638 173.553 36.9446V39.9431C173.088 39.8006 172.602 39.7352 172.116 39.7494C171.651 39.7305 171.188 39.8126 170.758 39.9901C170.328 40.1676 169.941 40.4362 169.624 40.7776C169.308 41.1189 169.068 41.5249 168.923 41.9677C168.778 42.4105 168.73 42.8795 168.782 43.3426V52.606H165.583L165.583 36.9884Z" fill="white"/>
<path id="Vector_9" d="M188.304 48.019C187.874 50.8541 185.119 52.7998 181.593 52.7998C177.059 52.7998 174.245 49.7558 174.245 44.8722C174.245 39.9735 177.074 36.7964 181.459 36.7964C185.771 36.7964 188.483 39.7646 188.483 44.4999V45.5983H177.475V45.792C177.424 46.3668 177.496 46.9458 177.685 47.4906C177.875 48.0354 178.178 48.5336 178.575 48.952C178.971 49.3704 179.452 49.6994 179.985 49.9173C180.519 50.1352 181.092 50.2369 181.667 50.2157C182.423 50.2866 183.182 50.1112 183.831 49.7154C184.479 49.3196 184.983 48.7246 185.267 48.019L188.304 48.019ZM177.49 43.3578H185.282C185.311 42.841 185.232 42.3238 185.052 41.8387C184.872 41.3536 184.594 40.9111 184.235 40.5389C183.876 40.1667 183.444 39.8729 182.966 39.6759C182.488 39.4788 181.975 39.3829 181.459 39.394C180.938 39.3909 180.421 39.4912 179.939 39.6891C179.457 39.887 179.019 40.1787 178.65 40.5472C178.281 40.9157 177.989 41.3538 177.789 41.8362C177.59 42.3186 177.488 42.8357 177.49 43.3578Z" fill="white"/>
</g>
</g>
</g>
<g id="&#60;Group&#62;_4">
<g id="Group_5">
<path id="Vector_10" d="M65.1175 15.061C65.7882 15.0128 66.4612 15.1143 67.0881 15.3583C67.7149 15.6022 68.2798 15.9826 68.7422 16.4718C69.2046 16.9611 69.5528 17.5471 69.7618 18.1875C69.9708 18.8279 70.0353 19.5069 69.9508 20.1753C69.9508 23.4636 68.1772 25.3538 65.1175 25.3538H61.4072V15.061H65.1175ZM63.0026 23.8982H64.9393C65.4186 23.9269 65.8982 23.8481 66.3433 23.6677C66.7883 23.4872 67.1876 23.2096 67.5121 22.855C67.8366 22.5004 68.0781 22.0777 68.219 21.6178C68.36 21.1579 68.3968 20.6723 68.3268 20.1963C68.3917 19.7222 68.3511 19.2396 68.2081 18.7831C68.065 18.3265 67.8229 17.9074 67.4991 17.5556C67.1754 17.2038 66.778 16.9281 66.3354 16.7483C65.8929 16.5685 65.4161 16.489 64.9393 16.5155H63.0026V23.8982Z" fill="white"/>
<path id="Vector_11" d="M71.7526 21.4663C71.7039 20.9558 71.7622 20.4408 71.9237 19.9542C72.0853 19.4677 72.3465 19.0203 72.6907 18.6408C73.0349 18.2614 73.4545 17.9582 73.9225 17.7507C74.3904 17.5432 74.8965 17.436 75.4083 17.436C75.92 17.436 76.4261 17.5432 76.8941 17.7507C77.3621 17.9582 77.7816 18.2614 78.1258 18.6408C78.47 19.0203 78.7313 19.4677 78.8928 19.9542C79.0544 20.4408 79.1126 20.9558 79.0639 21.4663C79.1136 21.9773 79.056 22.493 78.8949 22.9804C78.7338 23.4677 78.4727 23.9159 78.1284 24.2961C77.7841 24.6763 77.3642 24.9802 76.8958 25.1881C76.4273 25.396 75.9206 25.5034 75.4083 25.5034C74.8959 25.5034 74.3892 25.396 73.9208 25.1881C73.4523 24.9802 73.0325 24.6763 72.6882 24.2961C72.3439 23.9159 72.0828 23.4677 71.9217 22.9804C71.7606 22.493 71.703 21.9773 71.7526 21.4663ZM77.4904 21.4663C77.4904 19.7826 76.7355 18.7979 75.4108 18.7979C74.081 18.7979 73.333 19.7826 73.333 21.4663C73.333 23.1635 74.0811 24.1406 75.4108 24.1406C76.7356 24.1405 77.4904 23.1568 77.4904 21.4663Z" fill="white"/>
<path id="Vector_12" d="M88.7831 25.3535H87.1961L85.594 19.6327H85.473L83.8775 25.3535H82.3057L80.1689 17.5859H81.7206L83.1093 23.513H83.2236L84.8173 17.5859H86.2849L87.8787 23.513H87.9997L89.3816 17.5859H90.9114L88.7831 25.3535Z" fill="white"/>
<path id="Vector_13" d="M92.708 17.5858H94.1807V18.8197H94.295C94.4889 18.3766 94.816 18.005 95.2307 17.757C95.6453 17.5089 96.1269 17.3967 96.6083 17.4359C96.9854 17.4075 97.3642 17.4644 97.7164 17.6026C98.0686 17.7408 98.3853 17.9566 98.6429 18.234C98.9006 18.5115 99.0927 18.8435 99.2049 19.2054C99.3172 19.5674 99.3467 19.95 99.2913 20.3249V25.3533H97.7615V20.7099C97.7615 19.4616 97.2202 18.8408 96.0888 18.8408C95.8327 18.8289 95.5771 18.8725 95.3394 18.9688C95.1017 19.0651 94.8877 19.2118 94.7119 19.3988C94.5361 19.5857 94.4027 19.8086 94.3209 20.052C94.239 20.2955 94.2107 20.5538 94.2378 20.8092V25.3534H92.708L92.708 17.5858Z" fill="white"/>
<path id="Vector_14" d="M101.729 14.5537H103.259V25.3535H101.729V14.5537Z" fill="white"/>
<path id="Vector_15" d="M105.385 21.4664C105.337 20.9559 105.395 20.4409 105.557 19.9543C105.718 19.4677 105.979 19.0203 106.324 18.6408C106.668 18.2614 107.088 17.9582 107.556 17.7507C108.024 17.5432 108.53 17.436 109.041 17.436C109.553 17.436 110.059 17.5432 110.527 17.7507C110.995 17.9582 111.415 18.2614 111.759 18.6408C112.103 19.0203 112.365 19.4677 112.526 19.9543C112.688 20.4409 112.746 20.9559 112.698 21.4664C112.747 21.9774 112.689 22.4932 112.528 22.9805C112.367 23.4679 112.106 23.9161 111.762 24.2963C111.417 24.6765 110.997 24.9803 110.529 25.1882C110.061 25.3961 109.554 25.5035 109.041 25.5035C108.529 25.5035 108.022 25.3961 107.554 25.1882C107.085 24.9803 106.666 24.6765 106.321 24.2963C105.977 23.9161 105.716 23.4679 105.555 22.9805C105.393 22.4932 105.336 21.9774 105.385 21.4664ZM111.123 21.4664C111.123 19.7827 110.368 18.7981 109.044 18.7981C107.714 18.7981 106.966 19.7827 106.966 21.4665C106.966 23.1637 107.714 24.1407 109.044 24.1407C110.368 24.1407 111.123 23.1569 111.123 21.4664Z" fill="white"/>
<path id="Vector_16" d="M114.309 23.1568C114.309 21.7586 115.348 20.9526 117.192 20.838L119.291 20.7167V20.0463C119.291 19.2259 118.75 18.7626 117.704 18.7626C116.85 18.7626 116.259 19.0768 116.089 19.626H114.608C114.764 18.2918 116.017 17.436 117.775 17.436C119.719 17.436 120.815 18.4055 120.815 20.0463V25.3535H119.342V24.2619H119.221C118.975 24.6535 118.63 24.9727 118.221 25.1869C117.812 25.4012 117.354 25.5029 116.893 25.4815C116.567 25.5154 116.238 25.4806 115.927 25.3794C115.616 25.2781 115.329 25.1126 115.086 24.8936C114.842 24.6746 114.647 24.4069 114.514 24.1077C114.38 23.8086 114.31 23.4847 114.309 23.1568ZM119.291 22.4931V21.8437L117.399 21.965C116.331 22.0366 115.847 22.4004 115.847 23.0852C115.847 23.7843 116.452 24.1911 117.284 24.1911C117.528 24.2159 117.774 24.1912 118.009 24.1186C118.243 24.046 118.46 23.9269 118.647 23.7685C118.834 23.6101 118.988 23.4155 119.099 23.1964C119.209 22.9773 119.275 22.7381 119.291 22.4931Z" fill="white"/>
<path id="Vector_17" d="M122.825 21.4664C122.825 19.012 124.084 17.4571 126.043 17.4571C126.527 17.4347 127.008 17.551 127.429 17.7923C127.85 18.0336 128.194 18.39 128.42 18.8198H128.534V14.5537H130.064V25.3535H128.598V24.1263H128.477C128.233 24.5532 127.878 24.9052 127.449 25.144C127.02 25.3829 126.533 25.4996 126.043 25.4815C124.071 25.4816 122.825 23.9267 122.825 21.4664ZM124.406 21.4664C124.406 23.1139 125.181 24.1053 126.477 24.1053C127.766 24.1053 128.563 23.0996 128.563 21.4731C128.563 19.8542 127.758 18.8342 126.477 18.8342C125.189 18.8342 124.406 19.8323 124.406 21.4664Z" fill="white"/>
<path id="Vector_18" d="M136.393 21.4663C136.345 20.9558 136.403 20.4408 136.564 19.9542C136.726 19.4677 136.987 19.0203 137.331 18.6408C137.676 18.2614 138.095 17.9582 138.563 17.7507C139.031 17.5432 139.537 17.436 140.049 17.436C140.561 17.436 141.067 17.5432 141.535 17.7507C142.003 17.9582 142.422 18.2614 142.766 18.6408C143.111 19.0203 143.372 19.4677 143.533 19.9542C143.695 20.4408 143.753 20.9558 143.705 21.4663C143.754 21.9773 143.697 22.493 143.535 22.9804C143.374 23.4677 143.113 23.9159 142.769 24.2961C142.425 24.6763 142.005 24.9802 141.536 25.1881C141.068 25.396 140.561 25.5034 140.049 25.5034C139.537 25.5034 139.03 25.396 138.561 25.1881C138.093 24.9802 137.673 24.6763 137.329 24.2961C136.985 23.9159 136.723 23.4677 136.562 22.9804C136.401 22.493 136.344 21.9773 136.393 21.4663ZM142.131 21.4663C142.131 19.7826 141.376 18.7979 140.051 18.7979C138.722 18.7979 137.974 19.7826 137.974 21.4663C137.974 23.1635 138.722 24.1406 140.051 24.1406C141.376 24.1405 142.131 23.1568 142.131 21.4663Z" fill="white"/>
<path id="Vector_19" d="M145.758 17.5858H147.23V18.8197H147.345C147.539 18.3766 147.866 18.005 148.28 17.757C148.695 17.5089 149.177 17.3967 149.658 17.4359C150.035 17.4075 150.414 17.4644 150.766 17.6026C151.118 17.7408 151.435 17.9566 151.693 18.234C151.95 18.5115 152.142 18.8435 152.255 19.2054C152.367 19.5674 152.397 19.95 152.341 20.3249V25.3533H150.811V20.7099C150.811 19.4616 150.27 18.8408 149.139 18.8408C148.883 18.8289 148.627 18.8725 148.389 18.9688C148.152 19.0651 147.937 19.2118 147.762 19.3988C147.586 19.5857 147.452 19.8086 147.371 20.052C147.289 20.2955 147.261 20.5538 147.288 20.8092V25.3534H145.758V17.5858Z" fill="white"/>
<path id="Vector_20" d="M160.986 15.6519V17.6211H162.665V18.9123H160.986V22.9065C160.986 23.7201 161.32 24.0764 162.082 24.0764C162.277 24.0758 162.472 24.064 162.665 24.041V25.3179C162.39 25.3672 162.112 25.3934 161.833 25.3962C160.132 25.3962 159.454 24.7965 159.454 23.299V18.9123H158.224V17.621H159.454V15.6519H160.986Z" fill="white"/>
<path id="Vector_21" d="M164.754 14.5537H166.27V18.8342H166.391C166.595 18.3869 166.931 18.0133 167.354 17.7643C167.777 17.5153 168.266 17.403 168.755 17.4428C169.13 17.4223 169.505 17.4851 169.853 17.6266C170.202 17.7681 170.514 17.9849 170.769 18.2615C171.024 18.5381 171.215 18.8676 171.329 19.2267C171.442 19.5857 171.475 19.9653 171.425 20.3385V25.3535H169.893V20.7167C169.893 19.476 169.317 18.8477 168.236 18.8477C167.973 18.8261 167.708 18.8623 167.461 18.9538C167.213 19.0453 166.989 19.1899 166.803 19.3775C166.617 19.5651 166.474 19.7911 166.384 20.0397C166.295 20.2883 166.26 20.5536 166.284 20.8169V25.3535H164.754L164.754 14.5537Z" fill="white"/>
<path id="Vector_22" d="M180.345 23.2563C180.137 23.9663 179.687 24.5803 179.073 24.9911C178.459 25.4019 177.72 25.5833 176.986 25.5036C176.475 25.5171 175.968 25.4191 175.499 25.2163C175.03 25.0136 174.61 24.711 174.269 24.3295C173.929 23.9481 173.675 23.4969 173.526 23.0073C173.376 22.5177 173.335 22.0014 173.405 21.4943C173.337 20.9856 173.379 20.4682 173.528 19.9772C173.677 19.4861 173.929 19.0328 174.268 18.648C174.607 18.2632 175.024 17.9559 175.492 17.7468C175.96 17.5377 176.467 17.4318 176.979 17.4362C179.136 17.4362 180.437 18.9128 180.437 21.3519V21.8868H174.964V21.9727C174.94 22.2578 174.975 22.5447 175.069 22.8151C175.162 23.0855 175.31 23.3334 175.505 23.5429C175.699 23.7524 175.935 23.9189 176.197 24.0317C176.46 24.1445 176.743 24.2012 177.028 24.198C177.394 24.242 177.765 24.176 178.093 24.0083C178.421 23.8406 178.693 23.5788 178.872 23.2563L180.345 23.2563ZM174.963 20.7531H178.879C178.898 20.4924 178.863 20.2305 178.775 19.9843C178.687 19.7382 178.549 19.5131 178.37 19.3236C178.19 19.1341 177.973 18.9843 177.732 18.884C177.491 18.7836 177.232 18.7349 176.971 18.7409C176.706 18.7375 176.444 18.7873 176.199 18.8873C175.953 18.9872 175.731 19.1353 175.544 19.3229C175.357 19.5104 175.209 19.7336 175.109 19.9792C175.01 20.2248 174.96 20.488 174.963 20.7531Z" fill="white"/>
</g>
</g>
</g>
</g>
<defs>
<clipPath id="clip0_95_31">
<rect width="206" height="69" fill="white"/>
</clipPath>
</defs>
</svg>
