<svg width="415" height="789" viewBox="0 0 415 789" fill="none" xmlns="http://www.w3.org/2000/svg">
<path d="M-4.78057 384.442C48.1418 401.205 162.707 459.207 197.591 557.106C241.196 679.479 342.941 740.386 443.568 752.12M-15.4023 230.777C43.6694 246.237 181.405 294.766 220.512 384.442C268.03 493.404 306.045 544.812 459.781 571.634M-4.78057 83.8173C3.97771 103.375 32.0011 134.262 63.4221 153.106C99.7597 174.899 167.403 179.369 218.276 228.542C277.407 285.697 247.905 344.768 294.305 387.795C325.236 416.477 379.279 443.114 455.308 435.85M64.5402 0C74.0439 20.4887 102.219 65.9363 138.892 83.8173C184.734 106.169 216.04 106.727 246.787 132.431C277.534 158.135 282.912 232.939 309.958 265.98C335.115 296.713 373.689 324.093 443.568 317.388M172.994 0C179.702 16.0184 203.405 48.2788 240.078 62.5836C285.92 80.4646 308.84 76.5531 330.643 103.375C352.445 130.196 343.118 183.887 379.279 210.661C409.467 233.012 441.519 227.052 455.308 224.072M257.409 4.47025C263.372 15.2734 278.54 32.9681 300.455 37.4384C327.847 43.0262 374.807 43.585 396.05 74.8768C417.294 106.169 410.585 147.518 433.506 158.135C451.842 166.629 475.247 158.135 495 158.135M-40 540.901C18.8854 567.722 145.042 654.892 178.584 789" stroke="#99DAF2" stroke-width="2"/>
</svg>
