<svg width="52" height="52" viewBox="0 0 52 52" fill="none" xmlns="http://www.w3.org/2000/svg">
<g id="Group 1264">
<g id="Group 962">
<g id="Group 920">
<g id="Group 919">
<path id="Ellipse 43" d="M51.4846 26.3809C51.4846 40.2444 40.0782 51.4954 25.9923 51.4954C11.9064 51.4954 0.5 40.2444 0.5 26.3809C0.5 12.5175 11.9064 1.26654 25.9923 1.26654C40.0782 1.26654 51.4846 12.5175 51.4846 26.3809Z" stroke="black"/>
<path id="Vector" d="M25.9923 15.7089C23.0501 15.7089 22.6828 15.7223 21.5275 15.773C20.3741 15.8263 19.5889 16.0051 18.8985 16.2692C18.1864 16.5414 17.5818 16.9069 16.9798 17.5002C16.3778 18.0934 16.006 18.6884 15.7307 19.391C15.4626 20.0714 15.2803 20.8452 15.2271 21.9819C15.1729 23.1203 15.1621 23.4823 15.1621 26.3817C15.1621 29.2812 15.1756 29.6432 15.2271 30.7816C15.2812 31.9174 15.4626 32.692 15.7307 33.3724C16.0069 34.0733 16.3778 34.67 16.9798 35.2633C17.5818 35.8556 18.1855 36.2229 18.8985 36.4942C19.5898 36.7575 20.375 36.938 21.5275 36.9905C22.6828 37.0439 23.0501 37.0545 25.9923 37.0545C28.9345 37.0545 29.3018 37.0412 30.457 36.9905C31.6095 36.9371 32.3956 36.7575 33.0861 36.4942C33.7972 36.222 34.4028 35.8556 35.0048 35.2633C35.6059 34.67 35.9786 34.0759 36.2539 33.3724C36.521 32.692 36.7042 31.9174 36.7575 30.7816C36.8116 29.6432 36.8225 29.2812 36.8225 26.3817C36.8225 23.4823 36.8089 23.1203 36.7575 21.9819C36.7033 20.8461 36.521 20.0705 36.2539 19.391C35.9777 18.6893 35.6059 18.0934 35.0048 17.5002C34.4028 16.9069 33.7999 16.5405 33.0861 16.2692C32.3956 16.0051 31.6095 15.8254 30.457 15.773C29.3018 15.7196 28.9345 15.7089 25.9923 15.7089ZM25.9923 17.63C28.883 17.63 29.2278 17.6443 30.3695 17.6932C31.4254 17.7421 31.9985 17.9146 32.3794 18.0623C32.8866 18.2553 33.2458 18.4865 33.6267 18.8592C34.0048 19.2327 34.2395 19.5876 34.4353 20.0874C34.5833 20.4628 34.7602 21.0275 34.8081 22.0681C34.8595 23.1941 34.8712 23.5321 34.8712 26.3817C34.8712 29.2314 34.8577 29.5702 34.8044 30.6953C34.7494 31.7359 34.5734 32.3007 34.4245 32.676C34.2223 33.1759 33.9922 33.5298 33.6131 33.9052C33.235 34.2778 32.8694 34.5091 32.3676 34.7021C31.9886 34.8479 31.4065 35.0222 30.3505 35.0694C29.2007 35.1201 28.8623 35.1316 25.9652 35.1316C23.0672 35.1316 22.7288 35.1183 21.5799 35.0658C20.523 35.0116 19.9409 34.8381 19.5619 34.6914C19.0483 34.4922 18.6955 34.2654 18.3173 33.8918C17.9373 33.5192 17.6946 33.159 17.505 32.6644C17.3561 32.2909 17.181 31.7172 17.126 30.6766C17.0854 29.556 17.0709 29.21 17.0709 26.3684C17.0709 23.5259 17.0854 23.179 17.126 22.045C17.181 21.0044 17.3561 20.4316 17.505 20.0581C17.6946 19.5511 17.9373 19.2043 18.3173 18.8298C18.6955 18.4572 19.0483 18.217 19.5619 18.0311C19.9409 17.8835 20.5104 17.7101 21.5664 17.6567C22.7171 17.6167 23.0555 17.6033 25.9517 17.6033L25.9923 17.63ZM25.9923 20.9012C22.9192 20.9012 20.431 23.356 20.431 26.3817C20.431 29.4101 22.9219 31.8622 25.9923 31.8622C29.0653 31.8622 31.5536 29.4075 31.5536 26.3817C31.5536 23.3533 29.0626 20.9012 25.9923 20.9012ZM25.9923 29.9393C23.9977 29.9393 22.3822 28.3473 22.3822 26.3817C22.3822 24.4162 23.9977 22.8241 25.9923 22.8241C27.9868 22.8241 29.6023 24.4162 29.6023 26.3817C29.6023 28.3473 27.9868 29.9393 25.9923 29.9393ZM33.0734 20.6851C33.0734 21.3922 32.4904 21.9659 31.7738 21.9659C31.0563 21.9659 30.4742 21.3913 30.4742 20.6851C30.4742 19.9789 31.0572 19.4053 31.7738 19.4053C32.4895 19.4044 33.0734 19.9789 33.0734 20.6851Z" fill="black"/>
</g>
</g>
</g>
</g>
</svg>
