<svg width="93" height="80" viewBox="0 0 93 80" fill="none" xmlns="http://www.w3.org/2000/svg">
<g id="Group 1269">
<path id="Ellipse 33" d="M46.2876 0C20.7237 0 0 20.7236 0 46.2876C0 59.0695 5.18091 70.6414 13.5573 79.0178C13.5573 79.0178 22.6017 70.6407 46.2876 70.6407C69.9735 70.6407 79.0178 79.0178 79.0178 79.0178C87.3942 70.6414 92.5751 59.0695 92.5751 46.2876C92.5751 20.7236 71.8515 0 46.2876 0Z" fill="white"/>
<path id="Ellipse 33 (Stroke)" fill-rule="evenodd" clip-rule="evenodd" d="M13.5573 79.0178C5.18091 70.6414 0 59.0695 0 46.2876C0 20.7236 20.7237 0 46.2876 0C71.8515 0 92.5751 20.7236 92.5751 46.2876C92.5751 59.0695 87.3942 70.6414 79.0178 79.0178C79.0178 79.0178 69.9735 70.6407 46.2876 70.6407C22.6017 70.6407 13.5573 79.0178 13.5573 79.0178ZM78.5773 74.6118C77.2058 73.7652 75.2928 72.7421 72.7767 71.7329C67.1395 69.4721 58.5333 67.3046 46.2876 67.3046C34.0418 67.3046 25.4356 69.4721 19.7984 71.7329C17.2823 72.7421 15.3693 73.7652 13.9978 74.6118C7.35755 67.0487 3.33604 57.1404 3.33604 46.2876C3.33604 22.5661 22.5661 3.33604 46.2876 3.33604C70.009 3.33604 89.2391 22.5661 89.2391 46.2876C89.2391 57.1404 85.2176 67.0487 78.5773 74.6118Z" fill="#454E54"/>
<g id="Vector">
<path d="M46.3709 68.6482C55.4841 68.6482 64.224 65.028 70.668 58.584C77.112 52.1401 79.0641 45.0682 79.0641 35.955C69.951 35.955 62.8791 37.9072 56.4351 44.3512C49.9911 50.7951 46.3709 59.535 46.3709 68.6482Z" fill="url(#paint0_linear_1_1804)"/>
<path d="M46.3709 68.6482C46.3709 59.535 49.9911 50.7951 56.4351 44.3512C56.6739 39.5697 56.0899 35.0613 54.317 30.6143C52.5442 26.1673 49.8341 22.1544 46.3712 18.8486C42.9084 22.1544 40.1983 26.1673 38.4255 30.6143C36.6526 35.0613 36.068 39.5697 36.3068 44.3512C46.3709 54.9613 46.3709 68.6482 46.3709 68.6482Z" fill="url(#paint1_linear_1_1804)"/>
<path d="M13.6777 35.955C13.6777 45.0682 15.6299 52.1401 22.0739 58.584C28.5179 65.028 37.2578 68.6482 46.3709 68.6482C46.3709 68.6482 46.3709 54.9613 36.3068 44.3512C28.6065 35.2786 13.6777 35.955 13.6777 35.955Z" fill="url(#paint2_linear_1_1804)"/>
</g>
<path id="Vector (Stroke)" fill-rule="evenodd" clip-rule="evenodd" d="M45.2767 17.7026C45.8891 17.118 46.8527 17.118 47.4651 17.7026C51.0926 21.1655 53.9315 25.3692 55.7887 30.0276C57.1972 33.5608 57.8888 37.1215 58.0387 40.7862C64.1482 35.9052 70.9023 34.3705 79.0638 34.3705C79.4841 34.3705 79.8871 34.5375 80.1843 34.8347C80.4815 35.1318 80.6484 35.5349 80.6484 35.9552C80.6484 45.3482 78.6157 52.8771 71.7881 59.7047C65.047 66.4458 55.904 70.233 46.3706 70.233C36.8372 70.233 27.6942 66.4458 20.953 59.7047C14.1255 52.8771 12.0928 45.3482 12.0928 35.9552C12.0928 35.1079 12.7593 34.4105 13.6057 34.3722L13.6774 35.9552C13.6057 34.3722 13.6062 34.3721 13.6068 34.3721L13.6083 34.372L13.6123 34.3719L13.6244 34.3714L13.6647 34.3698C13.6986 34.3687 13.7466 34.3671 13.8079 34.3656C13.9306 34.3626 14.1067 34.3596 14.331 34.3592C14.7793 34.3584 15.4209 34.3679 16.2119 34.4087C17.7914 34.4901 19.9801 34.6967 22.4234 35.1989C26.2678 35.9891 30.88 37.5399 34.7103 40.6085C34.8752 37.0062 35.5674 33.5036 36.9532 30.0276C38.8103 25.3692 41.6492 21.1655 45.2767 17.7026ZM37.8645 43.6986C42.3568 48.5967 44.8438 54.0542 46.2223 58.5885C47.8418 53.0336 50.7923 47.9043 54.8775 43.6752C55.0306 39.3069 54.4469 35.2202 52.8447 31.2013C51.3476 27.446 49.1489 24.0158 46.3709 21.0918C43.5929 24.0158 41.3942 27.446 39.8971 31.2013C38.292 35.2275 37.7086 39.3217 37.8645 43.6986ZM44.6888 67.0206C44.6742 66.8622 44.6573 66.6934 44.638 66.515C44.4878 65.1311 44.186 63.1687 43.5808 60.8845C42.3684 56.3085 39.9541 50.4994 35.1567 45.4418C35.1367 45.4207 35.1172 45.3989 35.0983 45.3767C31.5801 41.2315 26.3298 39.2373 21.7853 38.3032C19.5338 37.8404 17.509 37.649 16.0488 37.5737C15.7721 37.5595 15.5161 37.5494 15.2833 37.5424C15.5051 45.5909 17.5022 51.7718 23.194 57.4637C28.9433 63.2129 36.6084 66.6058 44.6888 67.0206ZM47.9955 67.0235C56.0968 66.6217 63.7844 63.2264 69.5471 57.4637C75.2345 51.7763 77.2329 45.6007 77.4574 37.5616C69.4182 37.7861 63.2426 39.7844 57.5553 45.4718C51.7925 51.2345 48.3973 58.9222 47.9955 67.0235Z" fill="#454E54"/>
</g>
<defs>
<linearGradient id="paint0_linear_1_1804" x1="46.3709" y1="36.5297" x2="46.3709" y2="68.6482" gradientUnits="userSpaceOnUse">
<stop offset="0.127705" stop-color="#C58686"/>
<stop offset="1" stop-color="#F6EFEF"/>
</linearGradient>
<linearGradient id="paint1_linear_1_1804" x1="46.3709" y1="18.8486" x2="46.3709" y2="68.6482" gradientUnits="userSpaceOnUse">
<stop offset="0.231583" stop-color="#E3AA7B"/>
<stop offset="1" stop-color="#F7E9DE"/>
</linearGradient>
<linearGradient id="paint2_linear_1_1804" x1="46.3709" y1="39.1056" x2="46.3709" y2="68.6482" gradientUnits="userSpaceOnUse">
<stop stop-color="#937362"/>
<stop offset="1" stop-color="white"/>
</linearGradient>
</defs>
</svg>
