<svg width="48" height="49" viewBox="0 0 48 49" fill="none" xmlns="http://www.w3.org/2000/svg">
<g id="Frame">
<path id="Vector" d="M18.6683 35.5748C18.4378 35.5748 18.232 35.5336 18.051 35.4513C17.8699 35.369 17.6805 35.2455 17.483 35.0809L8.54369 26.1416C8.21443 25.8124 8.0498 25.4008 8.0498 24.9069C8.0498 24.413 8.21443 24.0014 8.54369 23.6722C8.87294 23.3429 9.26805 23.1783 9.72901 23.1783C10.19 23.1783 10.5851 23.3429 10.9143 23.6722L18.6683 31.4262L36.4481 13.6463C36.7774 13.3171 37.1725 13.1525 37.6334 13.1525C38.0944 13.1525 38.506 13.3171 38.8682 13.6463C39.1974 13.9756 39.362 14.3789 39.362 14.8564C39.362 15.3338 39.1974 15.7371 38.8682 16.0664L19.8536 35.0809C19.6561 35.2455 19.4668 35.369 19.2857 35.4513C19.1046 35.5336 18.8988 35.5748 18.6683 35.5748Z" fill="#6B9164"/>
</g>
</svg>
